<mxfile host="app.diagrams.net" agent="Mozilla/5.0 (Windows NT 10.0; Win64; x64) AppleWebKit/537.36 (KHTML, like Gecko) Chrome/138.0.0.0 Safari/537.36" version="28.1.0">
  <diagram name="หน้า-1" id="y3sDlIFb9uA6F9s-qsFw">
    <mxGraphModel dx="1507" dy="735" grid="1" gridSize="10" guides="1" tooltips="1" connect="1" arrows="1" fold="1" page="1" pageScale="1" pageWidth="827" pageHeight="1169" math="0" shadow="0">
      <root>
        <mxCell id="0" />
        <mxCell id="1" parent="0" />
        <mxCell id="4" value="End" style="html=1;dashed=0;whiteSpace=wrap;shape=mxgraph.dfd.start" vertex="1" parent="1">
          <mxGeometry x="347" y="1480" width="115" height="50" as="geometry" />
        </mxCell>
        <mxCell id="I03HgCPsbL1WAKwt1a0y-49" style="edgeStyle=orthogonalEdgeStyle;rounded=0;orthogonalLoop=1;jettySize=auto;html=1;exitX=0.5;exitY=1;exitDx=0;exitDy=0;entryX=0.5;entryY=0;entryDx=0;entryDy=0;" edge="1" parent="1" source="6" target="44">
          <mxGeometry relative="1" as="geometry" />
        </mxCell>
        <mxCell id="6" value="ต้องการเล่นเกมส์นี้ไหม&lt;div&gt;พิมพ์ 1 ถ้าอยากเล่น&amp;nbsp;&lt;/div&gt;&lt;div&gt;-1&amp;nbsp;&lt;span style=&quot;color: rgb(63, 63, 63); background-color: transparent;&quot;&gt;ถ้าไม่อยากเล่น&lt;/span&gt;&lt;/div&gt;" style="shape=parallelogram;perimeter=parallelogramPerimeter;whiteSpace=wrap;html=1;fixedSize=1;" vertex="1" parent="1">
          <mxGeometry x="305" y="180" width="200" height="70" as="geometry" />
        </mxCell>
        <mxCell id="7" value="" style="edgeStyle=none;html=1;" edge="1" parent="1" source="9" target="11">
          <mxGeometry relative="1" as="geometry" />
        </mxCell>
        <mxCell id="8" value="" style="edgeStyle=none;html=1;" edge="1" parent="1" source="9" target="13">
          <mxGeometry relative="1" as="geometry" />
        </mxCell>
        <mxCell id="9" value="ค่าที่ได้รับมาเป็น&lt;div&gt;1 หรือ -1 หรือไม่&lt;/div&gt;" style="rhombus;whiteSpace=wrap;html=1;" vertex="1" parent="1">
          <mxGeometry x="345" y="350" width="120" height="110" as="geometry" />
        </mxCell>
        <mxCell id="10" style="edgeStyle=none;html=1;" edge="1" parent="1" source="11">
          <mxGeometry relative="1" as="geometry">
            <mxPoint x="405" y="1480" as="targetPoint" />
            <Array as="points">
              <mxPoint x="700" y="405" />
              <mxPoint x="700" y="950" />
              <mxPoint x="700" y="1430" />
              <mxPoint x="560" y="1430" />
              <mxPoint x="405" y="1430" />
            </Array>
          </mxGeometry>
        </mxCell>
        <mxCell id="11" value="แสดง&lt;div&gt;กรอก 1 หรือ -1&lt;/div&gt;" style="shape=parallelogram;perimeter=parallelogramPerimeter;whiteSpace=wrap;html=1;fixedSize=1;" vertex="1" parent="1">
          <mxGeometry x="530" y="375" width="120" height="60" as="geometry" />
        </mxCell>
        <mxCell id="12" value="" style="edgeStyle=none;html=1;" edge="1" parent="1" source="13" target="17">
          <mxGeometry relative="1" as="geometry" />
        </mxCell>
        <mxCell id="13" value="มีคะเเนนอยู่ 100" style="shape=parallelogram;perimeter=parallelogramPerimeter;whiteSpace=wrap;html=1;fixedSize=1;" vertex="1" parent="1">
          <mxGeometry x="345" y="510" width="120" height="60" as="geometry" />
        </mxCell>
        <mxCell id="14" value="No" style="text;html=1;align=center;verticalAlign=middle;whiteSpace=wrap;rounded=0;" vertex="1" parent="1">
          <mxGeometry x="468" y="400" width="60" height="30" as="geometry" />
        </mxCell>
        <mxCell id="15" value="Yes" style="text;html=1;align=center;verticalAlign=middle;whiteSpace=wrap;rounded=0;" vertex="1" parent="1">
          <mxGeometry x="360" y="470" width="60" height="30" as="geometry" />
        </mxCell>
        <mxCell id="16" value="" style="edgeStyle=none;html=1;" edge="1" parent="1" source="17" target="25">
          <mxGeometry relative="1" as="geometry" />
        </mxCell>
        <mxCell id="17" value="สุ่มตัวเลข 1-100&lt;div&gt;Condition = True&lt;/div&gt;" style="rounded=0;whiteSpace=wrap;html=1;" vertex="1" parent="1">
          <mxGeometry x="345" y="610" width="120" height="60" as="geometry" />
        </mxCell>
        <mxCell id="18" style="edgeStyle=none;html=1;entryX=0;entryY=0.5;entryDx=0;entryDy=0;" edge="1" parent="1" source="20" target="23">
          <mxGeometry relative="1" as="geometry">
            <Array as="points">
              <mxPoint x="270" y="1305" />
              <mxPoint x="270" y="830" />
              <mxPoint x="270" y="710" />
            </Array>
          </mxGeometry>
        </mxCell>
        <mxCell id="19" value="" style="edgeStyle=none;html=1;" edge="1" parent="1" source="20" target="45">
          <mxGeometry relative="1" as="geometry" />
        </mxCell>
        <mxCell id="20" value="Condition" style="rhombus;whiteSpace=wrap;html=1;" vertex="1" parent="1">
          <mxGeometry x="348" y="1265" width="115" height="80" as="geometry" />
        </mxCell>
        <mxCell id="21" value="False" style="text;html=1;align=center;verticalAlign=middle;whiteSpace=wrap;rounded=0;rotation=0;" vertex="1" parent="1">
          <mxGeometry x="355" y="1340" width="60" height="30" as="geometry" />
        </mxCell>
        <mxCell id="22" value="" style="edgeStyle=none;html=1;" edge="1" parent="1" source="23" target="25">
          <mxGeometry relative="1" as="geometry" />
        </mxCell>
        <mxCell id="23" value="" style="ellipse;whiteSpace=wrap;html=1;aspect=fixed;" vertex="1" parent="1">
          <mxGeometry x="395" y="700" width="20" height="20" as="geometry" />
        </mxCell>
        <mxCell id="24" value="" style="edgeStyle=none;html=1;" edge="1" parent="1" source="25" target="33">
          <mxGeometry relative="1" as="geometry" />
        </mxCell>
        <mxCell id="25" value="กรอกตัวเลข" style="shape=parallelogram;perimeter=parallelogramPerimeter;whiteSpace=wrap;html=1;fixedSize=1;" vertex="1" parent="1">
          <mxGeometry x="340" y="750" width="130" height="60" as="geometry" />
        </mxCell>
        <mxCell id="26" value="" style="edgeStyle=none;html=1;" edge="1" parent="1" source="27" target="39">
          <mxGeometry relative="1" as="geometry" />
        </mxCell>
        <mxCell id="27" value="แสดงค่าบอกว่า&lt;div&gt;&lt;span style=&quot;color: rgb(63, 63, 63); background-color: transparent;&quot;&gt;มากกว่าหรือน้อยกว่า&lt;/span&gt;&lt;div&gt;&lt;div&gt;จากตัวเลขที่เรากรอก&lt;/div&gt;&lt;/div&gt;&lt;/div&gt;" style="shape=parallelogram;perimeter=parallelogramPerimeter;whiteSpace=wrap;html=1;fixedSize=1;" vertex="1" parent="1">
          <mxGeometry x="520" y="867.5" width="140" height="55" as="geometry" />
        </mxCell>
        <mxCell id="28" value="True" style="text;html=1;align=center;verticalAlign=middle;whiteSpace=wrap;rounded=0;" vertex="1" parent="1">
          <mxGeometry x="300" y="1280" width="60" height="30" as="geometry" />
        </mxCell>
        <mxCell id="29" value="" style="edgeStyle=none;html=1;" edge="1" parent="1" source="30" target="41">
          <mxGeometry relative="1" as="geometry" />
        </mxCell>
        <mxCell id="30" value="&lt;div&gt;เเสดงค่าว่าตอบถูกต้อง&lt;/div&gt;" style="shape=parallelogram;perimeter=parallelogramPerimeter;whiteSpace=wrap;html=1;fixedSize=1;" vertex="1" parent="1">
          <mxGeometry x="322.25" y="1050" width="164.5" height="60" as="geometry" />
        </mxCell>
        <mxCell id="31" value="" style="edgeStyle=none;html=1;" edge="1" parent="1" source="33" target="37">
          <mxGeometry relative="1" as="geometry" />
        </mxCell>
        <mxCell id="32" value="" style="edgeStyle=none;html=1;" edge="1" parent="1" source="33" target="27">
          <mxGeometry relative="1" as="geometry" />
        </mxCell>
        <mxCell id="33" value="คำตอบถูกหรือไม่" style="rhombus;whiteSpace=wrap;html=1;" vertex="1" parent="1">
          <mxGeometry x="347" y="850" width="117" height="90" as="geometry" />
        </mxCell>
        <mxCell id="34" value="No" style="text;html=1;align=center;verticalAlign=middle;whiteSpace=wrap;rounded=0;" vertex="1" parent="1">
          <mxGeometry x="460" y="870" width="60" height="30" as="geometry" />
        </mxCell>
        <mxCell id="35" value="Yes" style="text;html=1;align=center;verticalAlign=middle;whiteSpace=wrap;rounded=0;" vertex="1" parent="1">
          <mxGeometry x="350" y="950" width="60" height="30" as="geometry" />
        </mxCell>
        <mxCell id="36" value="" style="edgeStyle=none;html=1;" edge="1" parent="1" source="37" target="30">
          <mxGeometry relative="1" as="geometry" />
        </mxCell>
        <mxCell id="37" value="Condition = False" style="rounded=0;whiteSpace=wrap;html=1;" vertex="1" parent="1">
          <mxGeometry x="350" y="970" width="110" height="40" as="geometry" />
        </mxCell>
        <mxCell id="38" style="edgeStyle=none;html=1;entryX=1;entryY=0.5;entryDx=0;entryDy=0;" edge="1" parent="1" source="39" target="41">
          <mxGeometry relative="1" as="geometry">
            <Array as="points">
              <mxPoint x="590" y="1153" />
            </Array>
          </mxGeometry>
        </mxCell>
        <mxCell id="39" value="-10 คะเเนน" style="shape=parallelogram;perimeter=parallelogramPerimeter;whiteSpace=wrap;html=1;fixedSize=1;" vertex="1" parent="1">
          <mxGeometry x="528" y="980" width="120" height="60" as="geometry" />
        </mxCell>
        <mxCell id="40" value="" style="edgeStyle=none;html=1;" edge="1" parent="1" source="41" target="47">
          <mxGeometry relative="1" as="geometry" />
        </mxCell>
        <mxCell id="41" value="" style="ellipse;whiteSpace=wrap;html=1;aspect=fixed;" vertex="1" parent="1">
          <mxGeometry x="393" y="1140" width="25" height="25" as="geometry" />
        </mxCell>
        <mxCell id="42" style="edgeStyle=none;html=1;entryX=0;entryY=0.5;entryDx=0;entryDy=0;exitX=0;exitY=0.5;exitDx=0;exitDy=0;" edge="1" parent="1" source="45" target="44">
          <mxGeometry relative="1" as="geometry">
            <mxPoint x="348" y="1395" as="sourcePoint" />
            <Array as="points">
              <mxPoint x="220" y="1385" />
              <mxPoint x="220" y="303" />
            </Array>
          </mxGeometry>
        </mxCell>
        <mxCell id="43" value="" style="edgeStyle=none;html=1;" edge="1" parent="1" source="44" target="9">
          <mxGeometry relative="1" as="geometry" />
        </mxCell>
        <mxCell id="44" value="" style="ellipse;whiteSpace=wrap;html=1;aspect=fixed;" vertex="1" parent="1">
          <mxGeometry x="392" y="290" width="25" height="25" as="geometry" />
        </mxCell>
        <mxCell id="45" value="" style="ellipse;whiteSpace=wrap;html=1;aspect=fixed;" vertex="1" parent="1">
          <mxGeometry x="390" y="1370" width="30" height="30" as="geometry" />
        </mxCell>
        <mxCell id="46" style="edgeStyle=none;html=1;entryX=0.5;entryY=0;entryDx=0;entryDy=0;" edge="1" parent="1" source="47" target="20">
          <mxGeometry relative="1" as="geometry" />
        </mxCell>
        <mxCell id="47" value="เเสดงคะเเนนที่เหลืออยู่" style="rounded=0;whiteSpace=wrap;html=1;" vertex="1" parent="1">
          <mxGeometry x="342" y="1190" width="126" height="40" as="geometry" />
        </mxCell>
        <mxCell id="I03HgCPsbL1WAKwt1a0y-48" style="edgeStyle=orthogonalEdgeStyle;rounded=0;orthogonalLoop=1;jettySize=auto;html=1;exitX=0.5;exitY=0.5;exitDx=0;exitDy=25;exitPerimeter=0;entryX=0.5;entryY=0;entryDx=0;entryDy=0;" edge="1" parent="1" source="I03HgCPsbL1WAKwt1a0y-47" target="6">
          <mxGeometry relative="1" as="geometry" />
        </mxCell>
        <mxCell id="I03HgCPsbL1WAKwt1a0y-47" value="Start" style="html=1;dashed=0;whiteSpace=wrap;shape=mxgraph.dfd.start" vertex="1" parent="1">
          <mxGeometry x="347" y="80" width="115" height="50" as="geometry" />
        </mxCell>
      </root>
    </mxGraphModel>
  </diagram>
</mxfile>
